<svg width="22" height="18" viewBox="0 0 22 18" fill="none" xmlns="http://www.w3.org/2000/svg">
<path d="M21 1.11039C20 1.59946 19.02 1.79808 18 2.09851C16.879 0.835912 15.217 0.766045 13.62 1.36291C12.023 1.95977 10.977 3.41899 11 5.0928V6.0909C7.755 6.17374 4.865 4.69855 3 2.09851C3 2.09851 -1.182 9.51737 7 13.0776C5.128 14.3222 3.261 15.1616 1 15.0738C4.308 16.8734 7.913 17.4922 11.034 16.5879C14.614 15.5499 17.556 12.872 18.685 8.86062C19.0218 7.64062 19.189 6.38021 19.182 5.11476C19.18 4.86623 20.692 2.34803 21 1.10939V1.11039Z" stroke="#F8FAFC" stroke-width="2" stroke-linecap="round" stroke-linejoin="round"/>
</svg>
